<svg width="112" height="74" viewBox="0 0 112 74" fill="none" xmlns="http://www.w3.org/2000/svg">
<path fill-rule="evenodd" clip-rule="evenodd" d="M44.9089 22.7288C45.3731 23.0024 45.2737 23.5578 45.0581 24.1132C44.8094 24.7681 44.4778 25.2987 44.5027 25.8707C44.5359 26.6417 45.0084 27.2054 45.713 27.6696C48.1254 26.4593 47.1389 22.8863 44.9089 22.7288ZM69.0908 22.7288C68.6182 23.0024 68.726 23.5578 68.9333 24.1132C69.182 24.7681 69.5135 25.2987 69.4887 25.8707C69.4555 26.6417 68.983 27.2054 68.2783 27.6696C65.8743 26.4593 66.8608 22.8863 69.0908 22.7288ZM65.0867 12.9881C64.7137 12.5902 64.1997 12.814 63.7023 13.1373C63.122 13.5186 62.666 13.958 62.1106 14.0575C61.3562 14.1984 60.693 13.8585 60.0961 13.2699C60.7593 10.6586 64.4567 10.841 65.0867 12.9881ZM79.4864 44.2413C79.1133 43.8434 79.362 43.3377 79.7185 42.8651C80.133 42.3097 80.5972 41.8869 80.7382 41.3315C80.9206 40.5854 80.6221 39.9056 80.075 39.2673C77.4222 39.773 77.389 43.4786 79.4864 44.2413ZM84.9412 42.8817C85.1236 42.5584 84.8915 42.3014 84.6013 42.0776C84.2614 41.8206 83.9132 41.6548 83.7474 41.3398C83.5319 40.917 83.6231 40.4362 83.8801 39.9222C85.6293 39.6818 86.1681 41.9615 84.9412 42.8817ZM84.2946 56.8752C84.0459 56.3446 84.4272 55.9633 84.8997 55.6483C85.4635 55.2752 86.0272 55.0514 86.309 54.5789C86.6904 53.9323 86.5909 53.1696 86.2344 52.3406C83.5319 51.7851 82.4625 55.3167 84.2946 56.8752ZM62.7904 0.801817C63.2878 0.926167 63.3541 1.45672 63.3126 2.01215C63.2712 2.66706 63.1137 3.23907 63.2961 3.75305C63.5365 4.44111 64.1168 4.82245 64.8795 5.04628C66.7198 3.28052 64.8546 0.320998 62.7904 0.801817ZM90.5701 36.2332C90.0976 36.142 89.8406 36.5648 89.6582 37.0539C89.4344 37.6342 89.3432 38.1813 88.9867 38.5461C88.5142 39.0352 87.8676 39.1347 87.1298 39.0269C86.251 36.8052 89.0033 35.0228 90.5701 36.2332ZM77.5963 6.58822C77.1901 6.32294 76.7922 6.62967 76.444 7.01101C76.0212 7.46695 75.731 7.93948 75.2751 8.13844C74.6533 8.4203 74.015 8.27108 73.3767 7.88974C73.3767 5.51052 76.5932 4.88048 77.5963 6.58822ZM91.6146 47.6899C91.5234 47.2257 91.0426 47.1428 90.5286 47.1511C89.9235 47.1593 89.3846 47.2754 88.9204 47.0847C88.2986 46.8277 87.967 46.2723 87.8012 45.5594C89.509 43.9428 92.1535 45.8081 91.6146 47.6899ZM76.3694 28.0841C76.1124 28.4903 75.6233 28.3908 75.1424 28.1919C74.5704 27.9598 74.1062 27.653 73.6005 27.6613C72.9207 27.6696 72.4068 28.0758 71.984 28.6893C72.9953 30.8364 76.1787 30.0571 76.3694 28.0841ZM76.8502 19.7195C76.9414 19.1392 76.4108 18.8491 75.8056 18.6418C75.0927 18.4014 74.4212 18.3102 73.9653 17.8957C73.3435 17.3403 73.1943 16.5611 73.2938 15.6574C75.9549 14.4886 78.2512 17.7548 76.8502 19.7195ZM90.6613 24.2873C90.5038 23.9972 90.1639 24.0469 89.824 24.163C89.4261 24.2956 89.0862 24.4863 88.7463 24.4614C88.2738 24.4282 87.9422 24.1215 87.6852 23.6821C88.4727 22.2397 90.6198 22.9195 90.6613 24.2873ZM82.678 27.7194C82.3464 28.0344 82.5288 28.4655 82.8024 28.88C83.1257 29.3691 83.4905 29.7504 83.5733 30.2229C83.6894 30.8613 83.3993 31.4084 82.9019 31.9141C80.705 31.3587 80.8708 28.2499 82.678 27.7194ZM57.4102 0.262969C58.3967 0.909587 60.0132 1.52304 60.0464 2.91576C60.063 3.39658 59.7645 3.93543 59.6236 4.01833C59.4412 4.1261 58.8195 4.07636 58.405 3.81108C57.2775 3.09814 57.5014 1.40698 57.4102 0.262969ZM72.7881 19.4211C71.5114 19.9102 69.8617 21.0045 68.527 20.1009C68.0711 19.7859 67.7644 19.1558 67.7809 18.9569C67.8058 18.7082 68.2618 18.1693 68.7923 17.9621C70.2265 17.3901 71.6607 18.733 72.7881 19.4211ZM87.08 24.0801C85.9277 23.3505 84.5267 21.9495 83.0428 22.5713C82.5371 22.7868 82.106 23.3423 82.0894 23.5412C82.0646 23.7899 82.4045 24.4117 82.877 24.7184C84.1702 25.564 85.8448 24.5277 87.08 24.0801ZM74.015 10.6586C74.2057 11.6368 74.7943 12.9632 73.9736 13.8088C73.6917 14.0989 73.1943 14.2399 73.0534 14.2067C72.8793 14.1653 72.5394 13.759 72.4565 13.3611C72.2327 12.2503 73.385 11.3881 74.015 10.6586ZM92.6426 27.4541C91.5317 27.6945 89.882 27.6862 89.3597 28.9297C89.1857 29.3525 89.2603 29.9328 89.368 30.0654C89.4924 30.2312 90.0644 30.397 90.5286 30.2975C91.7887 30.0406 92.1701 28.4489 92.6426 27.4541ZM74.8937 21.0459C74.3134 21.8252 73.244 22.7454 73.6088 23.8314C73.7331 24.2044 74.1062 24.536 74.2471 24.5609C74.4212 24.594 74.8855 24.3785 75.1259 24.0635C75.7891 23.1847 75.1424 21.9495 74.8937 21.0459ZM86.0023 14.3145C86.2427 15.4834 86.9557 17.0667 85.9857 18.0781C85.6541 18.4263 85.0655 18.6004 84.8997 18.5589C84.6925 18.5009 84.2863 18.0284 84.1785 17.5476C83.8884 16.2377 85.2562 15.1932 86.0023 14.3145ZM62.5831 26.6665C63.8929 26.6665 65.7499 26.2686 66.6286 27.5287C66.9271 27.9598 66.9851 28.6313 66.9022 28.8053C66.7944 29.0126 66.1976 29.3442 65.6504 29.3442C64.1748 29.3691 63.3541 27.6613 62.5831 26.6665ZM67.0846 9.71354C65.8825 9.0835 64.3655 7.80684 62.9479 8.55294C62.4588 8.80993 62.0857 9.39852 62.0774 9.59748C62.0692 9.83789 62.4671 10.4348 62.9562 10.7C64.3157 11.4296 65.8908 10.2607 67.0846 9.71354ZM88.3401 25.3484C88.6551 26.6748 89.5256 28.4572 88.4561 29.6592C88.0914 30.0737 87.4199 30.2893 87.2292 30.2478C86.9888 30.1898 86.508 29.6675 86.3671 29.1204C85.9857 27.6199 87.5111 26.3764 88.3401 25.3484ZM66.0483 24.4282C65.4266 23.334 64.896 21.5931 63.4204 21.4604C62.9147 21.4107 62.3261 21.6843 62.2267 21.8335C62.1023 22.0159 62.1106 22.6791 62.3593 23.1267C63.0474 24.3702 64.8546 24.2542 66.0483 24.4282ZM78.6906 17.6553C79.6025 18.9071 81.2936 20.4076 80.6884 22.1402C80.4812 22.7371 79.876 23.2594 79.6522 23.3008C79.3786 23.3505 78.6408 23.0024 78.2595 22.4884C77.2066 21.0708 78.2678 19.0978 78.6906 17.6553ZM79.3206 28.1504C78.417 28.2168 77.1486 28.5981 76.4771 27.7691C76.245 27.4872 76.1704 27.023 76.2201 26.8986C76.2782 26.7494 76.6761 26.4842 77.0574 26.451C78.0771 26.3681 78.732 27.5038 79.3206 28.1504ZM62.2432 2.58416C62.6163 3.60383 63.4702 4.93022 62.7323 5.98305C62.4837 6.33952 61.9697 6.57993 61.8122 6.56335C61.6215 6.54677 61.1904 6.16543 61.0329 5.75093C60.5935 4.59862 61.6795 3.47119 62.2432 2.58416ZM89.1857 34.8902C87.8012 34.9897 85.8614 35.5783 84.8334 34.3099C84.477 33.8705 84.3609 33.1659 84.4355 32.9752C84.5267 32.7431 85.1402 32.3452 85.7122 32.2954C87.279 32.1545 88.2821 33.8871 89.1857 34.8902ZM90.0147 43.4869C88.9535 44.1169 87.652 45.3521 86.3256 44.747C85.8697 44.5397 85.4966 44.0257 85.4883 43.8434C85.4718 43.6195 85.7951 43.0641 86.2344 42.7988C87.4116 42.0776 88.9038 43.0558 90.0147 43.4869ZM65.6173 12.6067C65.6836 13.6596 65.4432 15.1849 66.5043 15.8315C66.869 16.0554 67.4162 16.0637 67.5488 15.989C67.7146 15.8979 67.9467 15.3922 67.9302 14.9611C67.8721 13.7673 66.4546 13.187 65.6173 12.6067ZM80.0916 46.5293C81.0035 45.9988 82.4708 45.5262 82.5703 44.291C82.6034 43.8599 82.3713 43.3708 82.2387 43.2879C82.0812 43.1802 81.5257 43.1967 81.1444 43.4123C80.1081 43.9926 80.2242 45.5179 80.0916 46.5293ZM68.353 6.71257C67.4411 6.47216 66.2058 5.84212 65.3603 6.57164C65.0701 6.82034 64.9043 7.28458 64.9292 7.41722C64.9624 7.58301 65.3271 7.93119 65.7002 8.03067C66.7364 8.31253 67.6234 7.27629 68.353 6.71257ZM75.8305 9.07521C74.9186 8.8348 73.6917 8.20476 72.8378 8.93428C72.5477 9.18298 72.3819 9.64722 72.4068 9.77986C72.4399 9.94566 72.8047 10.2938 73.1777 10.3933C74.2223 10.6752 75.1093 9.63064 75.8305 9.07521ZM90.711 51.0888C90.5203 49.9945 90.5867 48.378 89.3929 47.8308C88.9784 47.6402 88.4147 47.6899 88.2821 47.7894C88.1245 47.9054 87.9339 48.4609 88.0085 48.9085C88.2157 50.152 89.7577 50.5914 90.711 51.0888ZM84.2034 35.172C83.5485 35.3793 82.6863 35.8767 82.048 35.3876C81.8242 35.2135 81.6915 34.8902 81.7081 34.7907C81.7247 34.6664 81.9734 34.4094 82.247 34.3182C82.9765 34.0778 83.6562 34.799 84.2034 35.172ZM89.6002 54.3302C88.481 53.6255 86.6655 52.9623 86.5992 51.4038C86.5826 50.865 86.8893 50.2598 87.0634 50.1603C87.2624 50.036 87.9587 50.0774 88.423 50.3676C89.6914 51.1551 89.4758 53.0618 89.6002 54.3302ZM61.1987 26.3598C61.6298 25.4811 62.5251 24.3619 61.9614 23.3505C61.7707 23.0024 61.3313 22.7454 61.1904 22.7454C61.0163 22.7454 60.5935 23.0438 60.4112 23.4003C59.9138 24.3951 60.7842 25.5142 61.1987 26.3598ZM69.9612 2.50126C68.8338 2.60903 67.1924 2.41836 66.5457 3.58725C66.3219 3.98517 66.3302 4.57375 66.4131 4.71468C66.5209 4.88877 67.068 5.12089 67.5322 5.07944C68.8089 4.96338 69.3726 3.42974 69.9612 2.50126ZM93.3141 43.7439C92.7752 42.4423 92.4105 40.4279 90.7939 40.0797C90.2385 39.9554 89.5421 40.1792 89.4095 40.3284C89.2437 40.5191 89.1608 41.2569 89.3763 41.7957C89.9732 43.2713 92.0043 43.3874 93.3141 43.7439ZM72.9373 20.706C72.9124 22.049 73.3021 23.964 71.9923 24.8427C71.5363 25.1412 70.8482 25.1909 70.6742 25.0997C70.4586 24.992 70.127 24.3702 70.1353 23.8148C70.1436 22.2977 71.9011 21.4853 72.9373 20.706ZM77.7455 8.41201C76.7093 9.32391 74.9435 10.2938 75.1259 11.9104C75.1922 12.4658 75.615 13.0378 75.7974 13.1207C76.0295 13.2119 76.7341 13.0627 77.1735 12.6896C78.359 11.67 77.8201 9.73841 77.7455 8.41201ZM73.9321 39.831C73.5093 38.7119 73.244 36.9875 71.8762 36.6477C71.4037 36.5316 70.8068 36.7057 70.6907 36.83C70.5415 36.9876 70.4586 37.6093 70.6327 38.0735C71.0969 39.3419 72.8213 39.4911 73.9321 39.831ZM85.0075 60.415C85.6956 59.6109 86.9391 58.6741 86.6158 57.4555C86.508 57.041 86.1184 56.6514 85.9692 56.6099C85.7868 56.5602 85.2645 56.7591 84.9744 57.0907C84.1868 58.0026 84.8003 59.4119 85.0075 60.415ZM77.3227 30.1483C77.2978 31.5245 77.704 33.5058 76.3445 34.4094C75.8803 34.7244 75.1673 34.7658 74.9849 34.6746C74.7611 34.5586 74.4295 33.9203 74.4295 33.3483C74.4461 31.7897 76.2533 30.9524 77.3227 30.1483ZM65.2276 20.7392C65.4017 21.7174 65.866 22.1153 66.4214 22.2977C67.5737 22.6708 68.726 21.8832 69.7457 22.2646C68.2535 19.1807 66.2141 19.5372 65.2276 20.7392ZM82.2387 20.1921C81.3019 19.8439 80.9952 19.3216 80.9206 18.7413C80.7548 17.5393 81.7413 16.5528 81.5423 15.4751C84.3112 17.4895 83.5982 19.4294 82.2387 20.1921ZM71.9923 7.81513C71.014 7.47524 70.6741 6.94469 70.583 6.33952C70.384 5.09602 71.3788 4.0432 71.155 2.92405C74.073 4.96338 73.385 6.99443 71.9923 7.81513ZM79.0636 38.7699C78.8149 39.3668 78.475 39.5574 78.0937 39.5906C77.3144 39.6735 76.6927 39.0103 75.988 39.1181C77.3642 37.3772 78.5994 37.8746 79.0636 38.7699ZM83.6562 57.9529C83.1008 57.9612 82.8438 58.1767 82.7029 58.4669C82.3962 59.0637 82.7278 59.7601 82.4293 60.2824C84.2365 59.7435 84.22 58.5995 83.6562 57.9529ZM80.0501 25.1329C79.9755 26.0033 80.2657 26.4427 80.705 26.7246C81.592 27.3049 82.7444 26.8986 83.5236 27.4624C82.9682 24.5111 81.161 24.3453 80.0501 25.1329ZM70.0027 36.714C70.3011 37.2445 70.2431 37.6093 70.0524 37.916C69.6545 38.5461 68.8089 38.6207 68.4773 39.201C67.9716 37.1699 69.0659 36.5399 70.0027 36.714ZM84.1951 49.9531C84.4935 50.4836 84.4355 50.8484 84.2448 51.1551C83.8469 51.7852 83.0013 51.8598 82.6697 52.4401C82.1641 50.4007 83.2666 49.7707 84.1951 49.9531ZM69.7788 11.0814C68.7923 10.7995 68.4359 10.2938 68.3032 9.69696C68.0379 8.47833 68.9664 7.38406 68.6763 6.29807C71.6855 8.14673 71.1135 10.1944 69.7788 11.0814ZM79.2045 11.7114C78.5745 11.2969 78.4253 10.8658 78.4667 10.4265C78.5413 9.51458 79.4284 8.94257 79.4615 8.12186C81.1693 10.0617 80.3237 11.3798 79.2045 11.7114ZM68.5105 12.7477C67.9467 12.9798 67.5903 12.872 67.3084 12.6399C66.7364 12.1674 66.7613 11.3135 66.2307 10.9073C68.3198 10.6669 68.8089 11.8358 68.5105 12.7477ZM61.2733 2.99866C60.6764 2.85773 60.4526 2.55929 60.3614 2.21111C60.179 1.48988 60.7013 0.818397 60.5106 0.180069C62.3427 1.20803 62.0443 2.43494 61.2733 2.99866ZM83.4822 44.8216C84.1205 45.2029 84.2697 45.6257 84.2448 46.0651C84.1951 46.9687 83.3412 47.5573 83.3329 48.3697C81.592 46.5044 82.3879 45.1863 83.4822 44.8216ZM71.0721 29.5514C70.3757 30.1483 70.2845 30.6955 70.4006 31.2177C70.641 32.3037 71.8099 32.8426 71.984 33.8291C73.7166 31.2094 72.4814 29.7753 71.0721 29.5514ZM88.3898 31.3587C88.2986 32.4446 88.6634 32.9918 89.2022 33.34C90.3048 34.0612 91.7473 33.5555 92.7089 34.2602C92.0208 30.5877 89.7743 30.3804 88.3898 31.3587ZM65.4266 30.1483C65.1613 30.8364 64.78 31.0602 64.3489 31.11C63.4702 31.226 62.7406 30.4965 61.9531 30.6291C63.4536 28.6064 64.8712 29.1452 65.4266 30.1483ZM86.135 40.4693C86.6987 40.2041 87.0717 40.2952 87.3702 40.5191C87.9836 40.975 87.9919 41.8538 88.5556 42.2351C86.4334 42.5833 85.878 41.4144 86.135 40.4693ZM87.9422 54.3468C88.5142 54.8027 88.6054 55.2338 88.5308 55.6566C88.3732 56.527 87.4696 56.9912 87.3619 57.7788C85.9028 55.756 86.8313 54.5706 87.9422 54.3468ZM89.9566 38.6787C90.1224 37.8 90.5369 37.4435 91.0343 37.286C92.0706 36.9544 93.1068 37.6673 94.027 37.3357C92.6674 40.1046 90.8354 39.7647 89.9566 38.6787ZM77.6626 24.1464C77.0243 24.1961 76.701 23.9806 76.502 23.6573C76.0792 23.0024 76.3859 22.1568 75.9797 21.5848C78.1434 22.0159 78.2512 23.3423 77.6626 24.1464ZM84.9578 30.9607C84.3775 30.6789 84.2117 30.3224 84.1951 29.9411C84.1702 29.1535 84.8666 28.5815 84.8086 27.8769C86.4666 29.3525 85.878 30.5545 84.9578 30.9607ZM89.5421 27.3214C90.2717 27.4541 90.6613 27.2385 90.9348 26.8986C91.4903 26.194 91.2416 25.1909 91.7721 24.5775C89.2437 24.8179 88.9618 26.3266 89.5421 27.3214ZM59.4495 14.3311C59.9552 14.0409 60.3117 14.0906 60.6018 14.2813C61.207 14.6627 61.2899 15.4751 61.8453 15.7901C59.8889 16.2792 59.2837 15.2264 59.4495 14.3311ZM70.6576 16.3538C71.2213 16.0305 71.6192 16.0885 71.9425 16.2958C72.614 16.7186 72.7052 17.6305 73.3269 17.9786C71.1467 18.5258 70.4669 17.3569 70.6576 16.3538ZM86.251 18.7662C86.6241 19.189 86.9557 19.247 87.279 19.1724C87.9422 19.0149 88.2655 18.3019 88.8706 18.1859C87.2458 17.1414 86.3754 17.904 86.251 18.7662ZM76.8668 14.2482C77.5217 13.8668 77.9859 13.9414 78.359 14.1818C79.1382 14.6709 79.246 15.7321 79.9755 16.1383C77.4388 16.7766 76.6512 15.4087 76.8668 14.2482ZM82.6117 37.1948C82.7775 36.3161 83.192 35.9596 83.6977 35.8021C84.7339 35.4705 85.7702 36.1834 86.6904 35.8435C85.3225 38.6124 83.4987 38.2808 82.6117 37.1948ZM79.4698 13.3943C80.0087 14.5632 80.7133 14.9114 81.476 14.9528C83.0428 15.044 84.22 13.6761 85.621 13.8171C82.7444 10.4596 80.3154 11.5705 79.4698 13.3943ZM84.7091 21.0293C85.2313 20.0014 85.8697 19.7112 86.5495 19.6947C87.9505 19.6615 88.9618 20.9216 90.2219 20.8387C87.5443 23.7568 85.4054 22.6873 84.7091 21.0293ZM62.5334 18.7662C62.0028 19.1227 61.6215 19.0895 61.2899 18.9154C60.6101 18.5506 60.4609 17.6802 59.8309 17.3901C61.9034 16.6937 62.6412 17.7797 62.5334 18.7662ZM80.6967 33.3731C79.619 33.3731 79.1051 32.9586 78.7983 32.3949C78.1766 31.2343 78.8066 29.8582 78.1932 28.8302C81.7827 29.8416 81.791 32.0882 80.6967 33.3731ZM63.4867 18.4677C64.4898 18.1859 64.8629 17.6719 64.9955 17.0667C65.2691 15.8232 64.3323 14.7041 64.6308 13.6015C61.5635 15.4751 62.1355 17.5559 63.4867 18.4677ZM85.6956 46.2226C84.7257 46.6454 84.4272 47.2091 84.3775 47.8308C84.2697 49.1158 85.364 50.1106 85.2148 51.2629C88.0334 48.9666 87.1712 46.9521 85.6956 46.2226ZM76.9497 35.4042C81.7496 34.0612 83.5899 30.5545 89.0696 30.5545C84.7837 31.2923 82.3796 34.0197 79.047 36.0342C80.3486 36.4984 81.6335 37.1368 83.9961 38.3968C86.2759 39.6155 89.5173 39.6486 90.5701 39.6238C90.081 40.0465 86.3256 40.4362 84.3443 39.6403C83.2915 39.2176 82.3879 38.8196 81.5009 38.4715C82.1806 39.6818 83.391 40.9253 83.6314 42.2683C83.7309 42.8154 83.9879 43.5366 84.5599 43.8434C86.1681 44.7138 87.4199 46.2226 87.7764 47.3334C86.2096 45.5677 83.5651 44.7221 83.1423 44.1086C82.4791 43.1553 82.3962 42.0693 81.733 40.8092C81.4345 40.2372 80.7631 39.3916 80.0833 38.629C78.9807 37.3938 78.4833 37.4767 76.8087 37.0124C74.9352 36.4984 72.5228 35.9016 70.5995 35.9264C68.1208 35.9596 67.0597 36.9958 64.9872 37.3606C64.0007 37.5347 63.3127 38.3305 62.6743 38.6538C61.9282 39.0435 61.6795 39.7315 61.3313 40.718C61.0246 41.5885 60.4775 42.3926 60.4277 44.0257C60.32 47.5987 60.6184 50.409 61.4889 53.8659C62.3842 57.4058 64.3655 57.7291 65.3686 58.5498C67.5986 60.3653 69.3643 60.8295 71.7436 61.1114C73.3684 61.3103 74.4129 61.4181 76.0792 61.3186C76.759 61.2772 78.7237 61.0368 79.3455 61.1694C80.4397 61.3932 81.0366 62.2222 82.7526 63.0761C81.2024 63.1922 80.1164 62.33 79.5196 62.2803C77.7538 62.1227 76.9579 62.3549 76.4523 62.5041C76.303 62.5455 76.187 62.6533 76.0461 62.703C77.1072 63.2253 78.2595 64.0958 79.2377 64.3362C77.7455 64.3362 75.6398 63.3662 74.0399 62.9435C73.4347 62.9186 72.7715 62.8606 72.0005 62.8523C71.528 62.844 70.3674 63.1341 69.812 63.0346C68.4939 62.8025 65.6007 62.4461 64.3074 62.1393C64.3572 62.902 66.5789 64.7092 67.6317 65.2066C67.9053 65.2398 68.2783 65.447 68.4607 65.4553C69.4721 65.4968 71.6109 64.7838 72.6555 64.8087C75.3994 64.875 76.5186 66.3092 78.3507 66.5247C77.0823 66.8978 75.5321 65.7123 73.4513 65.6294C72.3653 65.588 71.7767 66.1102 70.9809 66.1683C71.5695 66.4998 72.1332 66.9061 72.4814 67.3537C72.7549 67.7185 72.813 68.9951 72.5974 69.7661C72.4233 67.9838 70.7902 67.1548 70.3591 67.105C69.4306 66.9972 67.2587 66.9475 66.5457 66.7403C64.7883 66.2429 63.1137 63.8222 61.3894 63.8802C61.4806 64.4108 61.837 65.132 62.6992 65.4885C63.7106 65.9113 63.9841 68.5806 65.6836 69.3765C67.3416 70.1474 66.8442 71.4407 66.7447 72.3277C66.3219 70.9516 65.9074 70.5868 64.5561 70.0563C63.2546 69.5423 62.9645 67.7433 61.7956 67.1879C61.1821 66.8978 60.0464 66.6822 59.5739 66.276C59.4081 66.1351 59.2423 66.0107 59.0848 65.903C59.0019 67.619 60.5023 68.1164 61.207 69.2853C61.2982 69.4345 61.5552 69.6998 61.6878 69.907C61.978 70.3796 61.6132 71.1091 61.9945 71.5153C62.3096 71.8552 63.3541 73.0572 63.6857 73.1401C62.9479 72.9577 61.6878 72.2697 61.1241 71.8054C60.6847 71.449 61.0495 70.9847 60.7759 70.5371C60.5023 70.0894 59.5573 69.7744 59.0184 69.3516C58.8029 70.0563 58.4216 71.1754 58.4962 71.6231C58.6454 72.535 58.4133 73.107 58.7946 73.7784C57.8164 73.3308 57.634 71.5567 57.5926 71.051C57.576 70.8189 57.6506 69.3184 57.634 69.1029C57.518 67.9009 57.319 67.619 56.9957 67.1299C56.6724 67.6107 56.4817 67.9009 56.3657 69.1029C56.3491 69.3184 56.4154 70.8189 56.4071 71.051C56.3739 71.5567 56.1833 73.3308 55.2051 73.7784C55.5864 73.1152 55.346 72.5432 55.5035 71.6231C55.5781 71.1754 55.1885 70.0563 54.9812 69.3516C54.4424 69.7744 53.4973 70.0894 53.2238 70.5371C52.9585 70.9764 53.3149 71.4407 52.8756 71.8054C52.3119 72.2697 51.0435 72.9577 50.314 73.1401C50.6456 73.0572 51.6901 71.8552 52.0051 71.5153C52.3865 71.1008 52.03 70.3796 52.3118 69.907C52.4362 69.6998 52.7015 69.4345 52.7927 69.2853C53.4973 68.1164 54.9978 67.619 54.9149 65.903C54.7574 66.0107 54.5916 66.1351 54.4258 66.276C53.945 66.6822 52.8175 66.8978 52.2041 67.1879C51.0352 67.7433 50.745 69.5506 49.4435 70.0563C48.0923 70.5868 47.6778 70.9433 47.255 72.3277C47.1389 71.4821 46.6415 70.1889 48.2995 69.4179C49.9989 68.6221 50.2725 65.9527 51.2839 65.5299C52.1461 65.1735 52.4942 64.4522 52.5937 63.9217C50.8694 63.8636 49.1948 66.2843 47.4373 66.7817C46.7161 66.989 44.5441 67.0387 43.624 67.1465C43.1929 67.1962 41.5598 68.0252 41.3857 69.8075C41.1701 69.0283 41.2282 67.7516 41.5017 67.3952C41.8499 66.9392 42.4053 66.5413 43.0022 66.2097C42.2064 66.1434 41.6178 65.6211 40.5318 65.6709C38.451 65.7538 36.9008 66.9392 35.6324 66.5662C37.4645 66.3506 38.5837 64.9165 41.3276 64.8502C42.3722 64.8253 44.511 65.5382 45.5224 65.4968C45.7047 65.4885 46.0778 65.2812 46.3514 65.2481C47.3959 64.7424 49.6259 62.9435 49.6756 62.1808C48.3824 62.4875 45.4892 62.844 44.1711 63.0761C43.6157 63.1756 42.4468 62.8854 41.9825 62.8937C41.2199 62.902 40.5484 62.96 39.9432 62.9849C38.3432 63.4077 36.2376 64.3776 34.7454 64.3776C35.7236 64.1289 36.8759 63.2668 37.937 62.7445C37.7961 62.6865 37.68 62.587 37.5308 62.5455C37.0251 62.3963 36.2293 62.1642 34.4635 62.3217C33.8667 62.3714 32.7807 63.2336 31.2304 63.1175C32.9465 62.272 33.5351 61.443 34.6376 61.2108C35.2677 61.0782 37.2241 61.3186 37.9039 61.3601C39.5702 61.4595 40.6147 61.3518 42.2395 61.1528C44.6188 60.871 46.3845 60.3984 48.6145 58.5912C49.6259 57.7705 51.6072 57.4389 52.4942 53.9074C53.3647 50.4505 53.6631 47.6402 53.5636 44.0672C53.5139 42.4258 52.9668 41.6216 52.66 40.7595C52.3119 39.773 52.0631 39.0766 51.3171 38.6953C50.6787 38.3637 49.9907 37.5761 49.0042 37.402C46.9399 37.0373 45.8705 36.001 43.3918 35.9679C41.4769 35.943 39.0645 36.5399 37.1826 37.0539C35.5081 37.5181 35.0107 37.4352 33.9081 38.6704C33.2283 39.4331 32.5651 40.287 32.2584 40.8507C31.5869 42.1108 31.5123 43.1967 30.8491 44.1501C30.4263 44.7635 27.7818 45.6091 26.215 47.3749C26.5715 46.2557 27.8233 44.747 29.4315 43.8848C30.0035 43.5781 30.2605 42.8568 30.36 42.3097C30.5921 40.9667 31.8107 39.715 32.4905 38.5129C31.6035 38.8694 30.6916 39.2673 29.6471 39.6818C27.6658 40.4776 23.9104 40.088 23.4213 39.6652C24.4741 39.6901 27.7155 39.6569 29.9952 38.4383C32.3579 37.1782 33.6511 36.5399 34.9444 36.0756C31.6118 34.0612 29.216 31.3255 24.9218 30.596C30.4014 30.596 32.2335 34.0943 37.0417 35.4456C39.3049 34.9731 41.3442 33.8954 43.624 33.8539C43.7898 33.8539 46.0032 34.2602 45.4809 32.8509C44.4032 29.9245 41.4188 26.7577 39.4209 26.6748C37.307 26.5919 36.3536 26.2437 34.3641 25.1826C31.8439 23.8314 31.8273 21.7672 28.7517 19.3299C33.5433 21.2615 31.3382 23.6739 37.2573 24.9671C38.078 25.1495 40.7805 24.8676 42.5546 25.5888C44.312 26.2935 48.5565 31.7068 49.9824 33.2239C51.0849 34.4011 53.7294 34.741 54.1357 34.2767C55.1139 33.141 55.3709 25.8127 54.6413 24.42C53.1574 21.5765 51.6735 21.1371 48.1586 19.7859C46.2602 19.0563 45.4643 16.9092 45.025 16.5528C43.6322 15.417 42.1152 15.5911 40.4986 15.2678C37.4645 14.6544 36.9008 13.1373 34.7786 13.1373C37.564 12.7642 39.6448 14.7373 42.9359 14.7373C43.367 14.7373 44.0385 14.9031 44.2457 14.7953C44.7017 14.5466 44.2872 13.8254 43.7732 13.3114C41.8582 11.3964 42.538 10.2441 41.4769 8.01409C42.9856 9.87934 42.596 10.2358 43.7815 11.9601C44.8011 13.444 45.2902 12.6565 45.4643 14.0906C45.6799 15.8979 47.2135 18.1942 48.7555 18.5755C51.458 19.247 52.1046 19.5206 53.7294 20.2169C54.7657 20.6563 55.6361 20.9547 55.6361 19.6532C55.6361 18.6335 56.117 16.959 55.8185 15.7569C55.5615 14.729 54.3263 13.3943 53.7211 12.3497C52.7844 10.7166 52.6766 10.0534 52.0217 8.77677C51.3336 7.4255 48.0094 7.23484 48.1005 4.00175C48.4404 5.08773 48.9627 5.6929 49.5098 6.05766C49.7254 6.20688 50.7368 6.66283 51.5492 6.97785C52.5191 7.35919 52.6932 7.46695 53.2072 6.51361C53.5885 5.80067 53.804 5.03799 54.5833 4.64007C54.9812 4.44112 55.3377 4.35822 55.6196 4.4494C54.5004 4.89706 54.2683 5.92502 53.9118 6.72915C53.6217 7.39235 53.3978 8.37056 53.5305 9.10837C53.6631 9.84618 54.0942 10.6503 54.5087 11.2803C54.7657 11.67 55.1222 11.985 55.4952 12.2751C56.1584 12.7725 56.4237 13.1456 57.004 13.386C57.5926 13.1539 57.8496 12.7808 58.521 12.2751C58.9024 11.9933 59.2506 11.6783 59.5076 11.2803C59.9221 10.6586 60.3448 9.84618 60.4858 9.10837C60.6184 8.36227 60.3946 7.39235 60.1044 6.72915C59.7563 5.93331 59.5158 4.89706 58.405 4.4494C58.6868 4.35822 59.035 4.44112 59.4412 4.64007C60.2288 5.03799 60.436 5.80067 60.8174 6.51361C61.3313 7.46695 61.5054 7.35919 62.4754 6.97785C63.2878 6.66283 64.2992 6.20688 64.5147 6.05766C65.0535 5.6929 65.5758 5.08773 65.924 4.00175C66.0152 7.23484 62.6909 7.4255 62.0028 8.77677C61.3479 10.0534 61.2402 10.7166 60.3034 12.3497C59.7065 13.3943 58.463 14.729 58.206 15.7569C57.9076 16.959 58.3884 18.6253 58.3884 19.6532C58.3884 20.9547 59.2589 20.6563 60.2951 20.2169C61.9199 19.5206 62.5666 19.247 65.2691 18.5755C66.811 18.1942 68.3447 15.8896 68.5602 14.0906C68.7343 12.6565 69.2234 13.444 70.2431 11.9601C71.4202 10.2358 71.0389 9.87934 72.5477 8.01409C71.4866 10.2441 72.1663 11.3964 70.2514 13.3114C69.7374 13.8254 69.3229 14.5383 69.7788 14.7953C69.9861 14.9114 70.6576 14.7373 71.0886 14.7373C74.3798 14.7373 76.4606 12.7642 79.246 13.1373C77.1237 13.1373 76.56 14.6627 73.5259 15.2678C71.9094 15.5911 70.3923 15.417 68.9996 16.5528C68.5602 16.9092 67.7644 19.0563 65.8577 19.7859C62.3427 21.1371 60.8588 21.5765 59.3749 24.42C58.6454 25.8127 58.9024 33.1493 59.8806 34.2767C60.2785 34.741 62.9313 34.4011 64.0339 33.2239C65.4598 31.7068 69.7125 26.2935 71.4617 25.5888C73.2358 24.8759 75.9383 25.1495 76.7507 24.9671C82.6697 23.6739 80.4646 21.2615 85.2562 19.3299C82.1806 21.7589 82.1641 23.8314 79.6439 25.1826C77.6543 26.252 76.6927 26.5919 74.587 26.6748C72.5891 26.7494 69.6047 29.9245 68.527 32.8509C68.0048 34.2684 70.2182 33.8539 70.384 33.8539C72.6555 33.8539 74.6865 34.9316 76.9497 35.4042ZM48.9047 12.9881C49.2777 12.5902 49.7917 12.814 50.2891 13.1373C50.8694 13.5186 51.3253 13.958 51.8808 14.0575C52.6352 14.1984 53.2984 13.8585 53.8952 13.2699C53.2403 10.6586 49.543 10.841 48.9047 12.9881ZM34.505 44.2413C34.878 43.8434 34.6293 43.3377 34.2729 42.8651C33.8584 42.3097 33.3941 41.8869 33.2532 41.3315C33.0708 40.5854 33.3693 39.9056 33.9164 39.2673C36.5692 39.773 36.6106 43.4786 34.505 44.2413ZM29.0502 42.8817C28.8678 42.5584 29.0999 42.3014 29.3901 42.0776C29.73 41.8206 30.0781 41.6548 30.2439 41.3398C30.4595 40.917 30.3683 40.4362 30.1113 39.9222C28.3704 39.6818 27.8316 41.9615 29.0502 42.8817ZM29.7051 56.8752C29.9538 56.3446 29.5724 55.9633 29.0999 55.6483C28.5362 55.2752 27.9725 55.0514 27.6906 54.5789C27.3093 53.9323 27.4088 53.1696 27.7652 52.3406C30.4595 51.7851 31.5289 55.3167 29.7051 56.8752ZM51.2093 0.801817C50.7119 0.926167 50.6456 1.45672 50.687 2.01215C50.7285 2.66706 50.886 3.23907 50.7036 3.75305C50.4632 4.44111 49.8746 4.82245 49.1119 5.04628C47.2715 3.28052 49.1451 0.320998 51.2093 0.801817ZM23.4213 36.2332C23.8938 36.142 24.1508 36.5648 24.3332 37.0539C24.557 37.6342 24.6482 38.1813 25.0047 38.5461C25.4772 39.0352 26.1238 39.1347 26.8616 39.0269C27.7487 36.8052 24.9964 35.0228 23.4213 36.2332ZM36.4034 6.58822C36.8096 6.32294 37.2075 6.62967 37.5557 7.01101C37.9785 7.46695 38.2686 7.93948 38.7246 8.13844C39.3463 8.4203 39.9847 8.27108 40.623 7.88974C40.623 5.51052 37.4065 4.88048 36.4034 6.58822ZM22.3767 47.6899C22.4679 47.2257 22.9488 47.1428 23.4627 47.1511C24.0679 47.1593 24.6068 47.2754 25.071 47.0847C25.6927 46.8277 26.0243 46.2723 26.1901 45.5594C24.4824 43.9428 21.8462 45.8081 22.3767 47.6899ZM37.6303 28.0841C37.8873 28.4903 38.3764 28.3908 38.8572 28.1919C39.4292 27.9598 39.8935 27.653 40.3992 27.6613C41.0789 27.6696 41.5929 28.0758 42.0157 28.6893C41.0043 30.8364 37.821 30.0571 37.6303 28.0841ZM37.1412 19.7195C37.05 19.1392 37.5806 18.8491 38.1857 18.6418C38.8987 18.4014 39.5702 18.3102 40.0261 17.8957C40.6479 17.3403 40.7971 16.5611 40.6976 15.6574C38.0365 14.4886 35.7402 17.7548 37.1412 19.7195ZM23.3301 24.2873C23.4876 23.9972 23.8275 24.0469 24.1674 24.163C24.5653 24.2956 24.9052 24.4863 25.2451 24.4614C25.7176 24.4282 26.0492 24.1215 26.3062 23.6821C25.5186 22.2397 23.3715 22.9195 23.3301 24.2873ZM31.3133 27.7194C31.6449 28.0344 31.4626 28.4655 31.189 28.88C30.8657 29.3691 30.5009 29.7504 30.418 30.2229C30.302 30.8613 30.5921 31.4084 31.0895 31.9141C33.2946 31.3587 33.1206 28.2499 31.3133 27.7194ZM56.548 0.262969C55.5615 0.909587 53.9533 1.52304 53.9118 2.91576C53.9035 3.39658 54.1937 3.93543 54.3429 4.01833C54.5253 4.1261 55.147 4.07636 55.5615 3.81108C56.689 3.09814 56.4568 1.40698 56.548 0.262969ZM41.2116 19.4211C42.4882 19.9102 44.1379 21.0045 45.4726 20.1009C45.9286 19.7859 46.2353 19.1558 46.2187 18.9569C46.1938 18.7082 45.7379 18.1693 45.2073 17.9621C43.7732 17.3901 42.339 18.733 41.2116 19.4211ZM26.9114 24.0801C28.0637 23.3505 29.4647 21.9495 30.9486 22.5713C31.4543 22.7868 31.8854 23.3423 31.9019 23.5412C31.9268 23.7899 31.5869 24.4117 31.1144 24.7184C29.8294 25.564 28.1549 24.5277 26.9114 24.0801ZM39.9764 10.6586C39.7857 11.6368 39.1971 12.9632 40.0178 13.8088C40.2997 14.0989 40.7971 14.2399 40.938 14.2067C41.1121 14.1653 41.4437 13.759 41.5349 13.3611C41.7587 12.2503 40.6064 11.3881 39.9764 10.6586ZM21.3488 27.4541C22.4596 27.6945 24.1176 27.6862 24.6316 28.9297C24.8057 29.3525 24.7311 29.9328 24.6233 30.0654C24.499 30.2312 23.927 30.397 23.4627 30.2975C22.2109 30.0406 21.8213 28.4489 21.3488 27.4541ZM39.1059 21.0459C39.6862 21.8252 40.7556 22.7454 40.3909 23.8314C40.2665 24.2044 39.8935 24.536 39.7525 24.5609C39.5784 24.594 39.1142 24.3785 38.8738 24.0635C38.2106 23.1847 38.8572 21.9495 39.1059 21.0459ZM27.9891 14.3145C27.7487 15.4834 27.0357 17.0667 28.0056 18.0781C28.3372 18.4263 28.9258 18.6004 29.0916 18.5589C29.2989 18.5009 29.7051 18.0284 29.8129 17.5476C30.103 16.2377 28.7435 15.1932 27.9891 14.3145ZM51.4082 26.6665C50.0984 26.6665 48.2415 26.2686 47.3627 27.5287C47.0643 27.9598 47.0063 28.6313 47.0892 28.8053C47.1969 29.0126 47.7938 29.3442 48.341 29.3442C49.8249 29.3691 50.6373 27.6613 51.4082 26.6665ZM46.9068 9.71354C48.1088 9.0835 49.6259 7.80684 51.0435 8.55294C51.5326 8.80993 51.9056 9.39852 51.9139 9.59748C51.9222 9.83789 51.5243 10.4348 51.0352 10.7C49.6756 11.4296 48.1005 10.2607 46.9068 9.71354ZM25.6596 25.3484C25.3446 26.6748 24.4741 28.4572 25.5435 29.6592C25.9083 30.0737 26.5798 30.2893 26.7704 30.2478C27.0108 30.1898 27.4917 29.6675 27.6326 29.1204C28.0056 27.6199 26.4803 26.3764 25.6596 25.3484ZM47.9513 24.4282C48.5648 23.334 49.1036 21.5931 50.5792 21.4604C51.0849 21.4107 51.6735 21.6843 51.773 21.8335C51.8974 22.0159 51.8891 22.6791 51.6404 23.1267C50.9523 24.3702 49.1451 24.2542 47.9513 24.4282ZM35.3091 17.6553C34.3972 18.9071 32.7061 20.4076 33.3112 22.1402C33.5185 22.7371 34.1236 23.2594 34.3475 23.3008C34.621 23.3505 35.3589 23.0024 35.7402 22.4884C36.793 21.0708 35.7319 19.0978 35.3091 17.6553ZM34.6791 28.1504C35.5827 28.2168 36.851 28.5981 37.5225 27.7691C37.7547 27.4872 37.8293 27.023 37.7795 26.8986C37.7215 26.7494 37.3236 26.4842 36.9422 26.451C35.9226 26.3681 35.2677 27.5038 34.6791 28.1504ZM51.7564 2.58416C51.3834 3.60383 50.5295 4.93022 51.2673 5.98305C51.516 6.33952 52.03 6.57993 52.1875 6.56335C52.3782 6.54677 52.8092 6.16543 52.9668 5.75093C53.4061 4.59862 52.3119 3.47119 51.7564 2.58416ZM24.814 34.8902C26.1984 34.9897 28.13 35.5783 29.1662 34.3099C29.5227 33.8705 29.6388 33.1659 29.5642 32.9752C29.473 32.7431 28.8595 32.3452 28.2875 32.2954C26.7207 32.1545 25.7176 33.8871 24.814 34.8902ZM23.985 43.4869C25.0461 44.1169 26.3476 45.3521 27.674 44.747C28.13 44.5397 28.503 44.0257 28.5113 43.8434C28.5279 43.6195 28.2046 43.0641 27.7652 42.7988C26.5798 42.0776 25.0959 43.0558 23.985 43.4869ZM48.3824 12.6067C48.3161 13.6596 48.5565 15.1849 47.4954 15.8315C47.1306 16.0554 46.5835 16.0637 46.4508 15.989C46.285 15.8979 46.0529 15.3922 46.0695 14.9611C46.1275 13.7673 47.5368 13.187 48.3824 12.6067ZM33.9081 46.5293C32.9962 45.9988 31.5289 45.5262 31.4294 44.291C31.3962 43.8599 31.6284 43.3708 31.761 43.2879C31.9185 43.1802 32.4739 43.1967 32.8553 43.4123C33.8915 43.9926 33.7672 45.5179 33.9081 46.5293ZM45.6467 6.71257C46.5586 6.47216 47.7855 5.84212 48.6394 6.57164C48.9295 6.82034 49.0953 7.28458 49.0705 7.41722C49.0373 7.58301 48.6726 7.93119 48.2995 8.03067C47.2633 8.31253 46.3679 7.27629 45.6467 6.71257ZM38.1609 9.07521C39.0728 8.8348 40.2997 8.20476 41.1535 8.93428C41.4437 9.18298 41.6095 9.64722 41.5846 9.77986C41.5515 9.94566 41.1867 10.2938 40.8137 10.3933C39.7774 10.6752 38.8904 9.63064 38.1609 9.07521ZM23.2804 51.0888C23.471 49.9945 23.4047 48.378 24.5985 47.8308C25.013 47.6402 25.5767 47.6899 25.7093 47.7894C25.8668 47.9054 26.0575 48.4609 25.9829 48.9085C25.7756 50.152 24.2337 50.5914 23.2804 51.0888ZM29.7963 35.172C30.4512 35.3793 31.3133 35.8767 31.9517 35.3876C32.1755 35.2135 32.3081 34.8902 32.2916 34.7907C32.275 34.6664 32.0263 34.4094 31.7527 34.3182C31.0232 34.0778 30.3351 34.799 29.7963 35.172ZM24.3995 54.3302C25.5186 53.6255 27.3342 52.9623 27.4005 51.4038C27.4171 50.865 27.1103 50.2598 26.9362 50.1603C26.7373 50.036 26.0409 50.0774 25.5767 50.3676C24.3083 51.1551 24.5239 53.0618 24.3995 54.3302ZM52.7927 26.3598C52.3616 25.4811 51.4663 24.3619 52.03 23.3505C52.2207 23.0024 52.66 22.7454 52.801 22.7454C52.975 22.7454 53.3978 23.0438 53.5802 23.4003C54.0859 24.3951 53.2155 25.5142 52.7927 26.3598ZM44.0385 2.50126C45.1659 2.60903 46.799 2.41836 47.4539 3.58725C47.6778 3.98517 47.6695 4.57375 47.5866 4.71468C47.4788 4.88877 46.9317 5.12089 46.4674 5.07944C45.1825 4.96338 44.6188 3.42974 44.0385 2.50126ZM20.6773 43.7439C21.2162 42.4423 21.5809 40.4279 23.1975 40.0797C23.7529 39.9554 24.4492 40.1792 24.5819 40.3284C24.7477 40.5191 24.8306 41.2569 24.615 41.7957C24.0265 43.2713 21.9954 43.3874 20.6773 43.7439ZM41.0541 20.706C41.0789 22.049 40.6893 23.964 41.9991 24.8427C42.4551 25.1412 43.1431 25.1909 43.3172 25.0997C43.5328 24.992 43.8561 24.3702 43.8561 23.8148C43.8561 22.2977 42.0903 21.4853 41.0541 20.706ZM36.2542 8.41201C37.2904 9.32391 39.0562 10.2938 38.8738 11.9104C38.8075 12.4658 38.3847 13.0378 38.2023 13.1207C37.9702 13.2119 37.2655 13.0627 36.8262 12.6896C35.6407 11.67 36.1713 9.73841 36.2542 8.41201ZM40.0676 39.831C40.4903 38.7119 40.7473 36.9875 42.1235 36.6477C42.596 36.5316 43.1929 36.7057 43.3089 36.83C43.4582 36.9876 43.5411 37.6093 43.367 38.0735C42.8944 39.3419 41.1784 39.4911 40.0676 39.831ZM28.9839 60.415C28.2958 59.6109 27.0523 58.6741 27.3756 57.4555C27.4834 57.041 27.873 56.6514 28.0222 56.6099C28.2046 56.5602 28.7269 56.7591 29.017 57.0907C29.8129 58.0026 29.1911 59.4119 28.9839 60.415ZM36.6687 30.1483C36.6935 31.5245 36.2873 33.5058 37.6469 34.4094C38.1111 34.7244 38.8241 34.7658 39.0064 34.6746C39.2303 34.5586 39.5702 33.9203 39.5619 33.3483C39.5536 31.7897 37.7381 30.9524 36.6687 30.1483ZM48.7637 20.7392C48.5897 21.7174 48.1337 22.1153 47.57 22.2977C46.4177 22.6708 45.2654 21.8832 44.2457 22.2646C45.7462 19.1807 47.7772 19.5372 48.7637 20.7392ZM31.761 20.1921C32.6978 19.8439 33.0045 19.3216 33.0791 18.7413C33.2449 17.5393 32.2584 16.5528 32.4574 15.4751C29.6885 17.4895 30.4014 19.4294 31.761 20.1921ZM42.0074 7.81513C42.9856 7.47524 43.3255 6.94469 43.4167 6.33952C43.6157 5.09602 42.6209 4.0432 42.8447 2.92405C39.9183 4.96338 40.6147 6.99443 42.0074 7.81513ZM34.9361 38.7699C35.1848 39.3668 35.5247 39.5574 35.906 39.5906C36.6852 39.6735 37.307 39.0103 38.0116 39.1181C36.6355 37.3772 35.4003 37.8746 34.9361 38.7699ZM30.3434 57.9529C30.8988 57.9612 31.1558 58.1767 31.3051 58.4669C31.6118 59.0637 31.2802 59.7601 31.5786 60.2824C29.7548 59.7435 29.7714 58.5995 30.3434 57.9529ZM33.9413 25.1329C34.0159 26.0033 33.7257 26.4427 33.2864 26.7246C32.3993 27.3049 31.247 26.8986 30.4678 27.4624C31.0315 24.5111 32.8387 24.3453 33.9413 25.1329ZM43.997 36.714C43.6986 37.2445 43.7566 37.6093 43.9473 37.916C44.3452 38.5461 45.1908 38.6207 45.5224 39.201C46.0198 37.1699 44.9255 36.5399 43.997 36.714ZM29.7963 49.9531C29.4978 50.4836 29.5559 50.8484 29.7465 51.1551C30.1445 51.7852 30.99 51.8598 31.3216 52.4401C31.8273 50.4007 30.733 49.7707 29.7963 49.9531ZM44.2125 11.0814C45.1991 10.7995 45.5555 10.2938 45.6882 9.69696C45.9534 8.47833 45.025 7.38406 45.3151 6.29807C42.3059 8.14673 42.8862 10.1944 44.2125 11.0814ZM34.7951 11.7114C35.4252 11.2969 35.5744 10.8658 35.5329 10.4265C35.4583 9.51458 34.5713 8.94257 34.5381 8.12186C32.8221 10.0617 33.6677 11.3798 34.7951 11.7114ZM45.4809 12.7477C46.0446 12.9798 46.4011 12.872 46.683 12.6399C47.255 12.1674 47.2218 11.3135 47.7607 10.9073C45.6716 10.6669 45.1908 11.8358 45.4809 12.7477ZM52.7181 2.99866C53.3149 2.85773 53.5388 2.55929 53.63 2.21111C53.8123 1.48988 53.2901 0.818397 53.4807 0.180069C51.6569 1.20803 51.9471 2.43494 52.7181 2.99866ZM30.5175 44.8216C29.8792 45.2029 29.73 45.6257 29.7548 46.0651C29.8046 46.9687 30.6584 47.5573 30.6667 48.3697C32.3993 46.5044 31.6118 45.1863 30.5175 44.8216ZM42.9193 29.5514C43.6157 30.1483 43.7069 30.6955 43.5908 31.2177C43.3504 32.3037 42.1815 32.8426 42.0074 33.8291C40.2748 31.2094 41.51 29.7753 42.9193 29.5514ZM25.6015 31.3587C25.6927 32.4446 25.328 32.9918 24.7891 33.34C23.6783 34.0612 22.2441 33.5555 21.2825 34.2602C21.9788 30.5877 24.2171 30.3804 25.6015 31.3587ZM48.5731 30.1483C48.8384 30.8364 49.2197 31.0602 49.6508 31.11C50.5295 31.226 51.259 30.4965 52.0466 30.6291C50.5378 28.6064 49.1202 29.1452 48.5731 30.1483ZM27.8647 40.4693C27.301 40.2041 26.9279 40.2952 26.6295 40.5191C26.016 40.975 26.0078 41.8538 25.444 42.2351C27.5663 42.5833 28.1217 41.4144 27.8647 40.4693ZM26.0492 54.3468C25.4772 54.8027 25.386 55.2338 25.4606 55.6566C25.6181 56.527 26.5217 56.9912 26.6295 57.7788C28.0968 55.756 27.1601 54.5706 26.0492 54.3468ZM24.043 38.6787C23.8772 37.8 23.4627 37.4435 22.9653 37.286C21.9291 36.9544 20.8928 37.6673 19.9727 37.3357C21.3322 40.1046 23.1643 39.7647 24.043 38.6787ZM36.3371 24.1464C36.9754 24.1961 37.2987 23.9806 37.4977 23.6573C37.9205 23.0024 37.6137 22.1568 38.0199 21.5848C35.8562 22.0159 35.7485 23.3423 36.3371 24.1464ZM29.0419 30.9607C29.6222 30.6789 29.788 30.3224 29.8046 29.9411C29.8294 29.1535 29.1331 28.5815 29.1911 27.8769C27.5331 29.3525 28.1217 30.5545 29.0419 30.9607ZM24.4575 27.3214C23.728 27.4541 23.3384 27.2385 23.0648 26.8986C22.5094 26.194 22.7581 25.1909 22.2275 24.5775C24.756 24.8179 25.0295 26.3266 24.4575 27.3214ZM54.5501 14.3311C54.0445 14.0409 53.688 14.0906 53.3978 14.2813C52.7927 14.6627 52.7181 15.4751 52.1543 15.7901C54.1108 16.2792 54.7159 15.2264 54.5501 14.3311ZM43.3421 16.3538C42.7784 16.0305 42.3805 16.0885 42.0572 16.2958C41.3857 16.7186 41.2945 17.6305 40.6727 17.9786C42.8447 18.5258 43.5245 17.3569 43.3421 16.3538ZM27.7487 18.7662C27.3756 19.189 27.044 19.247 26.7207 19.1724C26.0575 19.0149 25.7342 18.3019 25.129 18.1859C26.7456 17.1414 27.6243 17.904 27.7487 18.7662ZM37.1246 14.2482C36.4697 13.8668 36.0055 13.9414 35.6324 14.1818C34.8449 14.6709 34.7454 15.7321 34.0159 16.1383C36.5526 16.7766 37.3484 15.4087 37.1246 14.2482ZM31.3797 37.1948C31.2139 36.3161 30.7994 35.9596 30.302 35.8021C29.2657 35.4705 28.2295 36.1834 27.3093 35.8435C28.6688 38.6124 30.5009 38.2808 31.3797 37.1948ZM34.5216 13.3943C33.9827 14.5632 33.2781 14.9114 32.5154 14.9528C30.9486 15.044 29.7714 13.6761 28.3704 13.8171C31.2553 10.4596 33.6843 11.5705 34.5216 13.3943ZM29.2906 21.0293C28.7683 20.0014 28.13 19.7112 27.4502 19.6947C26.0492 19.6615 25.0378 20.9216 23.7695 20.8387C26.4554 23.7568 28.5942 22.6873 29.2906 21.0293ZM51.4663 18.7662C51.9968 19.1227 52.3782 19.0895 52.7098 18.9154C53.3895 18.5506 53.5388 17.6802 54.1688 17.3901C52.0963 16.6937 51.3502 17.7797 51.4663 18.7662ZM33.3029 33.3731C34.3806 33.3731 34.8946 32.9586 35.2013 32.3949C35.8231 31.2343 35.1931 29.8582 35.8065 28.8302C32.2169 29.8416 32.2087 32.0882 33.3029 33.3731ZM50.5046 18.4677C49.5015 18.1859 49.1285 17.6719 48.9959 17.0667C48.7223 15.8232 49.6591 14.7041 49.3606 13.6015C52.4279 15.4751 51.8559 17.5559 50.5046 18.4677ZM57.6009 7.06075C57.8993 8.03067 56.1335 10.8327 58.7366 11.4793C58.9521 11.4047 59.3418 10.8658 59.4081 10.3519C59.607 8.93428 58.4713 7.9229 57.6009 7.06075ZM56.3905 7.06075C56.0921 8.03067 57.8578 10.8327 55.2548 11.4793C55.0393 11.4047 54.6496 10.8658 54.5833 10.3519C54.3843 8.93428 55.5284 7.9229 56.3905 7.06075ZM59.3832 6.84521C58.9107 7.09391 58.5957 7.02759 58.3387 6.8535C57.8081 6.48874 57.7667 5.75093 57.2693 5.4442C59.0516 5.06286 59.5656 6.04108 59.3832 6.84521ZM54.6165 6.84521C55.089 7.09391 55.404 7.02759 55.661 6.8535C56.1916 6.48874 56.233 5.75093 56.7304 5.4442C54.9481 5.06286 54.4341 6.04108 54.6165 6.84521ZM28.3041 46.2226C29.274 46.6454 29.5724 47.2091 29.6222 47.8308C29.73 49.1158 28.6357 50.1106 28.7849 51.2629C25.958 48.9666 26.8202 46.9521 28.3041 46.2226Z" fill="white"/>
<path d="M102 26.9231C102 26.9231 106 29.9579 106 37.7471C106 45.5364 102 49.0769 102 49.0769" stroke="#F1F1F1" stroke-width="2"/>
<path d="M105 22C105 22 111 26.3836 111 37.6347C111 48.8858 105 54 105 54" stroke="#F1F1F1" stroke-width="2"/>
<path d="M10 26.9231C10 26.9231 6 29.9579 6 37.7471C6 45.5364 10 49.0769 10 49.0769" stroke="#F1F1F1" stroke-width="2"/>
<path d="M7 22C7 22 0.999999 26.3836 0.999999 37.6347C0.999999 48.8858 7 54 7 54" stroke="#F1F1F1" stroke-width="2"/>
</svg>
