<svg width="26" height="21" viewBox="0 0 26 21" fill="none" xmlns="http://www.w3.org/2000/svg">
<path d="M25.584 7.69562L23.0818 5.17063L23.5377 2.58679C23.7763 1.228 22.8751 0.120636 21.5285 0.120636H5.72539C4.37886 0.120636 3.09065 1.228 2.85209 2.58679L0.0371087 18.5338C-0.201449 19.8926 0.694469 21 2.0463 21H17.8494C19.196 21 20.4895 19.898 20.728 18.5338L21.6399 13.3715L25.5946 9.38074C26.0505 8.92067 26.0452 8.16638 25.584 7.69562ZM17.6904 6.55616L16.2803 14.5645C16.1583 15.2492 15.5116 15.8056 14.8383 15.8056H6.89698C6.21841 15.8056 5.7678 15.2492 5.88973 14.5645L7.29988 6.55616C7.4218 5.87142 8.06856 5.31506 8.74183 5.31506H16.6832C17.3564 5.32041 17.8123 5.87142 17.6904 6.55616Z" fill="#0174E2"/>
</svg>
